HIERARCHY
ROOT Hips
{
    OFFSET 0.0 0.0 0.0
    CHANNELS 6 Xposition Yposition Zposition Zrotation Xrotation Yrotation
    JOINT LeftHipJoint
    {
        OFFSET 0.1 0.0 0.0
        CHANNELS 3 Zrotation Xrotation Yrotation
        JOINT LeftUpLeg
        {
            OFFSET 121.45955654434009 0.0 0.0
            CHANNELS 3 Zrotation Xrotation Yrotation
            JOINT LeftLeg
            {
                OFFSET 0.0 0.0 -414.29220084033466
                CHANNELS 3 Zrotation Xrotation Yrotation
                JOINT LeftFoot
                {
                    OFFSET 0.0 0.0 -397.4967874105822
                    CHANNELS 3 Zrotation Xrotation Yrotation
                    End Site
                    {
                        OFFSET 0.0 -0.1 0.0
                    }
                }
            }
        }
    }
    JOINT LowerBack
    {
        OFFSET 0.0 0.0 0.1
        CHANNELS 3 Zrotation Xrotation Yrotation
        JOINT Spine
        {
            OFFSET 0.0 0.0 218.69418659614192
            CHANNELS 3 Zrotation Xrotation Yrotation
            JOINT Spine1
            {
                OFFSET 0.0 0.0 249.33742563693744
                CHANNELS 3 Zrotation Xrotation Yrotation
                JOINT LeftShoulder
                {
                    OFFSET 0.1 0.0 0.0
                    CHANNELS 3 Zrotation Xrotation Yrotation
                    JOINT LeftArm
                    {
                        OFFSET 139.7979061404471 0.0 0.0
                        CHANNELS 3 Zrotation Xrotation Yrotation
                        JOINT LeftForeArm
                        {
                            OFFSET 257.10866840908795 0.0 0.0
                            CHANNELS 3 Zrotation Xrotation Yrotation
                            JOINT LeftHand
                            {
                                OFFSET 245.42563068178583 0.0 0.0
                                CHANNELS 3 Zrotation Xrotation Yrotation
                                End Site
                                {
                                    OFFSET 0.1 0.0 0.0
                                }
                            }
                        }
                    }
                }
                JOINT Neck
                {
                    OFFSET 0.0 0.0 0.1
                    CHANNELS 3 Zrotation Xrotation Yrotation
                    JOINT Neck1
                    {
                        OFFSET 0.0 0.0 105.94723062795212
                        CHANNELS 3 Zrotation Xrotation Yrotation
                        End Site
                        {
                            OFFSET 0.0 0.0 118.09054366262473
                        }
                    }
                }
                JOINT RightShoulder
                {
                    OFFSET -0.1 0.0 0.0
                    CHANNELS 3 Zrotation Xrotation Yrotation
                    JOINT RightArm
                    {
                        OFFSET -139.7979061404471 0.0 0.0
                        CHANNELS 3 Zrotation Xrotation Yrotation
                        JOINT RightForeArm
                        {
                            OFFSET -257.10866840908795 0.0 0.0
                            CHANNELS 3 Zrotation Xrotation Yrotation
                            JOINT RightHand
                            {
                                OFFSET -245.42563068178583 0.0 0.0
                                CHANNELS 3 Zrotation Xrotation Yrotation
                                End Site
                                {
                                    OFFSET -0.1 0.0 0.0
                                }
                            }
                        }
                    }
                }
            }
        }
    }
    JOINT RightHipJoint
    {
        OFFSET -0.1 0.0 0.0
        CHANNELS 3 Zrotation Xrotation Yrotation
        JOINT RightUpLeg
        {
            OFFSET -121.45955654434009 0.0 0.0
            CHANNELS 3 Zrotation Xrotation Yrotation
            JOINT RightLeg
            {
                OFFSET 0.0 0.0 -414.29220084033466
                CHANNELS 3 Zrotation Xrotation Yrotation
                JOINT RightFoot
                {
                    OFFSET 0.0 0.0 -397.4967874105822
                    CHANNELS 3 Zrotation Xrotation Yrotation
                    End Site
                    {
                        OFFSET 0.0 -0.1 0.0
                    }
                }
            }
        }
    }
}
MOTION
Frames: 4
Frame Time: 0.03333333333333333
0.0 0.0 801.6174607873196 25.404635783423966 2.8927711464954458 6.551062005684608 0.0 0.0 -1.987846675914698e-16 -0.8860633972010211 -17.352723735770557 -3.7222535621906103 -0.35361438442558635 25.05697616445197 0.5814682251376253 0.0 0.0 -3.975693351829396e-16 0.0 0.0 -1.987846675914698e-16 -0.067539293193224 -1.3646043081607624 -2.1974087934456636 4.5006822959261825 -2.0936383449341213e-16 -2.6531269524275003e-16 0.0 0.0 9.93923337957349e-17 -23.526208537326387 11.976544864284877 76.10507266899295 -31.65208638609458 8.58962459162442e-15 -1.864006215534997e-14 -1.5902773407317584e-15 1.5902773407317584e-15 -5.367186024969684e-15 0.0 0.0 9.93923337957349e-17 -10.494587898750826 1.0367896992456775 -8.020117728460267 0.0 0.0 9.93923337957349e-17 -1.1751280575922982 -31.260129567639254 -55.10583230295679 120.70072050649027 1.76475192015324e-15 -6.314930324863315e-15 0.0 0.0 0.0 0.0 0.0 -1.987846675914698e-16 -0.553415232162437 -11.051068654040133 -6.192928423756715 -1.1554346786828105 19.252542383717923 -0.566063060530171 0.0 0.0 0.0
0.0 0.0 801.6174607873196 25.32243046774434 2.81955535335545 6.571314935534757 0.0 0.0 4.969616689786745e-17 -0.8828618688026583 -17.055469780653176 -3.7227687381256196 -0.33314497416292116 24.908101791104908 0.4830747900036465 0.0 0.0 -3.975693351829396e-16 0.0 0.0 4.969616689786745e-17 -0.06698767057712543 -1.3335385726957323 -2.246740917719068 4.583800518871309 -3.577277689831573e-17 -8.938154316408778e-16 3.1805546814635168e-15 2.4828222926532145e-32 8.945310041616142e-16 -23.485060276952865 12.20388657888607 76.10681501340238 -31.663794927853782 -8.11491152734454e-15 1.1129302663725418e-14 0.0 0.0 2.1866313435061676e-15 3.1805546814635168e-15 2.4828222926532145e-32 8.945310041616142e-16 -10.415421949542713 1.0706543855627009 -8.083688546673311 3.1805546814635168e-15 2.4828222926532145e-32 8.945310041616142e-16 -0.8710968015935701 -31.292265124729663 -54.796331825752176 120.71737402089883 -6.292010991113063e-15 1.1057370708996977e-14 0.0 0.0 0.0 0.0 0.0 4.969616689786745e-17 -0.554850998926067 -10.918133603692489 -6.15911424738746 -1.1253479499147894 19.19571311041329 -0.701354220846733 0.0 0.0 -3.975693351829396e-16
0.0 0.0 801.6174607873196 25.200163285939297 2.7518066495280524 6.5380215007618165 2.586273221513765e-34 1.987846675914698e-16 -1.4908850069360235e-16 -0.8801358656631433 -16.95885854253257 -3.6579165809235428 -0.30099215473046564 25.009413744756205 0.40669515779872684 0.0 0.0 -3.9756933518293955e-16 2.586273221513765e-34 1.987846675914698e-16 -1.4908850069360235e-16 -0.06927364877919368 -1.3749252085787693 -2.214266593177306 4.543718072621601 1.47408230447412e-16 -1.2989647587983765e-15 0.0 0.0 -3.2302508483613845e-16 -23.59393483007385 12.229419809023799 76.05315998303091 -31.55947298276132 6.983707853156525e-15 -3.056115689016086e-14 0.0 0.0 -2.782985346280577e-15 0.0 0.0 -3.2302508483613845e-16 -10.261993590430038 1.0994955425754214 -8.039441790178254 0.0 0.0 -3.2302508483613845e-16 -0.7774529525415712 -30.976260538441892 -54.689344180446945 121.0314357541716 5.239558458495202e-15 -1.8959991463291248e-14 0.0 0.0 0.0 2.586273221513765e-34 1.987846675914698e-16 -1.4908850069360235e-16 -0.5632137892424716 -11.045569517942702 -6.090786193340101 -1.1233146782200887 19.605242467656964 -0.8146118342774503 -5.517382872562698e-33 1.5902773407317584e-15 3.975693351829396e-16
0.0 0.0 801.6174607873196 25.065753600543903 2.924249649329795 6.562109121131227 0.0 0.0 1.987846675914698e-16 -0.8963104838794032 -17.052673786511747 -3.6569341304395437 -0.28061667465096296 24.87531738476922 0.302089539539528 0.0 0.0 7.951386703658792e-16 0.0 0.0 1.987846675914698e-16 -0.07068211679767344 -1.3856144580370926 -2.1909477484309297 4.578826409327527 6.117597574010753e-16 3.7342934020700933e-16 0.0 0.0 4.969616689786745e-17 -23.460166196052793 12.290496001782532 75.98679024160417 -31.663637129417125 6.492121482472608e-15 -1.7064984033474067e-14 4.965644585306429e-32 -1.5902773407317584e-15 3.578124016646457e-15 0.0 0.0 4.969616689786745e-17 -10.213140239423614 0.9426699250962319 -8.076088517461628 0.0 0.0 4.969616689786745e-17 -0.7386653831634487 -30.969024913894426 -54.65139535507241 121.24371882585683 1.3857693233318108e-15 7.801444756949631e-16 0.0 0.0 0.0 0.0 0.0 1.987846675914698e-16 -0.5831803305074017 -11.289401056529163 -6.166808711259404 -1.1436538840924482 19.718871486360023 -0.7063864196771359 0.0 4.969616689786745e-17 0.0
